<svg width="25" height="24" viewBox="0 0 25 24" fill="none" xmlns="http://www.w3.org/2000/svg">
<path d="M14.0912 19.5556C14.1061 19.5706 14.5642 19.6854 15.109 19.8107C15.6539 19.9359 16.1057 20.0192 16.1129 19.996C16.1201 19.9726 16.1765 19.5944 16.2382 19.1555C16.362 18.274 16.6619 17.2448 16.9823 16.6011C17.981 14.5951 19.7728 13.2668 21.9461 12.9216L22.4996 12.8337V11.9475V11.0613L21.998 10.9771C18.7117 10.4258 16.5691 7.96857 16.1683 4.29136C16.1422 4.05124 16.1109 3.85484 16.0989 3.85484C15.988 3.85484 14.1516 4.29743 14.1168 4.33249C14.0917 4.35785 14.1104 4.58295 14.1584 4.83264C14.6898 7.5975 16.2115 9.84734 18.186 10.788L18.6597 11.0137L8.91957 11.0314L2.76054 11.0426V12.8361L8.93542 12.8473L18.6526 12.865L18.0546 13.168C16.5033 13.9539 15.2751 15.4956 14.5518 17.565C14.3457 18.1546 14.0347 19.4986 14.0912 19.5556Z" fill="white"/>
</svg>
