<svg width="40" height="40" viewBox="0 0 40 40" fill="none" xmlns="http://www.w3.org/2000/svg">
<rect width="40" height="40" rx="20" fill="#101010"/>
<path d="M10.5 20C10.5 15.5217 10.5 13.2825 11.8912 11.8912C13.2825 10.5 15.5217 10.5 20 10.5C24.4783 10.5 26.7175 10.5 28.1088 11.8912C29.5 13.2825 29.5 15.5217 29.5 20C29.5 24.4783 29.5 26.7175 28.1088 28.1088C26.7175 29.5 24.4783 29.5 20 29.5C15.5217 29.5 13.2825 29.5 11.8912 28.1088C10.5 26.7175 10.5 24.4783 10.5 20Z" stroke="white" stroke-width="1.5" stroke-linejoin="round"/>
<path d="M24.9265 16.0264H21.9816C20.9378 16.0264 20.0894 16.8685 20.0817 17.9123L19.9964 29.4268M18.082 22.0017H22.8847" stroke="white" stroke-width="1.5" stroke-linecap="round" stroke-linejoin="round"/>
</svg>
