<svg width="40" height="41" viewBox="0 0 40 41" fill="none" xmlns="http://www.w3.org/2000/svg">
<rect y="0.647705" width="40" height="40" rx="8" fill="#FC5154"/>
<path d="M10.5 20.6477C10.5 16.1694 10.5 13.9302 11.8912 12.5389C13.2825 11.1477 15.5217 11.1477 20 11.1477C24.4783 11.1477 26.7175 11.1477 28.1088 12.5389C29.5 13.9302 29.5 16.1694 29.5 20.6477C29.5 25.126 29.5 27.3652 28.1088 28.7565C26.7175 30.1477 24.4783 30.1477 20 30.1477C15.5217 30.1477 13.2825 30.1477 11.8912 28.7565C10.5 27.3652 10.5 25.126 10.5 20.6477Z" stroke="white" stroke-width="1.5" stroke-linejoin="round"/>
<path d="M24.9265 16.6741H21.9816C20.9378 16.6741 20.0894 17.5162 20.0817 18.56L19.9964 30.0745M18.082 22.6494H22.8847" stroke="white" stroke-width="1.5" stroke-linecap="round" stroke-linejoin="round"/>
</svg>
