<svg width="40" height="41" viewBox="0 0 40 41" fill="none" xmlns="http://www.w3.org/2000/svg">
<rect y="0.647705" width="40" height="40" rx="8" fill="#FC5154"/>
<path d="M10.5 20.6477C10.5 16.1694 10.5 13.9302 11.8912 12.5389C13.2825 11.1477 15.5217 11.1477 20 11.1477C24.4783 11.1477 26.7175 11.1477 28.1088 12.5389C29.5 13.9302 29.5 16.1694 29.5 20.6477C29.5 25.126 29.5 27.3652 28.1088 28.7565C26.7175 30.1477 24.4783 30.1477 20 30.1477C15.5217 30.1477 13.2825 30.1477 11.8912 28.7565C10.5 27.3652 10.5 25.126 10.5 20.6477Z" stroke="white" stroke-width="1.5" stroke-linejoin="round"/>
<path d="M24.5 20.6477C24.5 23.133 22.4853 25.1477 20 25.1477C17.5147 25.1477 15.5 23.133 15.5 20.6477C15.5 18.1624 17.5147 16.1477 20 16.1477C22.4853 16.1477 24.5 18.1624 24.5 20.6477Z" stroke="white" stroke-width="1.5"/>
<path d="M25.5078 15.1477H25.4988" stroke="white" stroke-width="1.5" stroke-linecap="round" stroke-linejoin="round"/>
</svg>
