<svg width="91" height="35" viewBox="0 0 91 35" fill="none" xmlns="http://www.w3.org/2000/svg">
<path d="M24.7831 32.7212C24.8234 33.853 23.9168 34.7925 22.7843 34.7925H2.21564C1.08313 34.7925 0.17656 33.853 0.21691 32.7212L1.05501 9.21292C1.09338 8.13677 1.9769 7.28418 3.05374 7.28418H21.9462C23.0231 7.28418 23.9066 8.13677 23.945 9.21292L24.7831 32.7212Z" fill="white"/>
<path fill-rule="evenodd" clip-rule="evenodd" d="M10.9406 24.7533V28.4608C10.9406 29.5047 10.0923 30.3525 9.04788 30.3525H7.2728V13.0771H8.381C9.79322 13.0771 10.9406 14.2239 10.9406 15.6354V23.9844L14.6722 18.7866H16.4669C17.3937 18.7866 17.9184 19.855 17.3496 20.5852L14.5398 24.2216L19.0119 30.3525H15.8687C15.1381 30.3525 14.4565 29.9899 14.0495 29.3822L10.9406 24.7533Z" fill="#FC5154"/>
<path d="M16.3199 7.63225C16.3199 7.79398 16.3101 7.95571 16.2905 8.11253H19.9142C19.924 7.95081 19.9289 7.79398 19.9289 7.63225C19.9289 3.53027 16.6043 0.20752 12.5001 0.20752C8.3958 0.20752 5.0712 3.53027 5.0712 7.63225C5.0712 7.79398 5.0761 7.95571 5.08591 8.11253H8.70962C8.69001 7.95571 8.6802 7.79398 8.6802 7.63225C8.6802 5.5249 10.3915 3.81452 12.5001 3.81452C14.6086 3.81452 16.3199 5.5249 16.3199 7.63225Z" fill="white"/>
<path d="M31.1281 29V13.992H33.2281V16.848L32.8921 16.428C33.3028 15.5507 33.9095 14.8693 34.7121 14.384C35.5335 13.8987 36.4295 13.656 37.4001 13.656C38.5575 13.656 39.6028 13.9827 40.5361 14.636C41.4695 15.2893 42.1321 16.1387 42.5241 17.184L41.9361 17.212C42.3095 16.0547 42.9535 15.1773 43.8681 14.58C44.8015 13.964 45.8281 13.656 46.9481 13.656C47.9561 13.656 48.8801 13.8987 49.7201 14.384C50.5788 14.8693 51.2601 15.5413 51.7641 16.4C52.2868 17.24 52.5481 18.192 52.5481 19.256V29H50.4481V20.068C50.4481 19.1533 50.2801 18.3787 49.9441 17.744C49.6268 17.1093 49.1881 16.624 48.6281 16.288C48.0681 15.9333 47.4241 15.756 46.6961 15.756C45.9868 15.756 45.3428 15.9333 44.7641 16.288C44.1855 16.624 43.7281 17.1187 43.3921 17.772C43.0561 18.4067 42.8881 19.172 42.8881 20.068V29H40.7881V20.068C40.7881 19.1533 40.6201 18.3787 40.2841 17.744C39.9668 17.1093 39.5281 16.624 38.9681 16.288C38.4081 15.9333 37.7641 15.756 37.0361 15.756C36.3081 15.756 35.6548 15.9333 35.0761 16.288C34.5161 16.624 34.0681 17.1187 33.7321 17.772C33.3961 18.4067 33.2281 19.172 33.2281 20.068V29H31.1281ZM60.8978 29.336C59.9458 29.336 59.0965 29.1587 58.3498 28.804C57.6032 28.4307 57.0152 27.9267 56.5858 27.292C56.1565 26.6573 55.9418 25.9293 55.9418 25.108C55.9418 24.324 56.1098 23.6147 56.4458 22.98C56.7818 22.3267 57.3045 21.776 58.0138 21.328C58.7232 20.88 59.6285 20.5627 60.7298 20.376L66.6098 19.396V21.3L61.2338 22.196C60.1512 22.3827 59.3672 22.728 58.8818 23.232C58.4152 23.736 58.1818 24.3333 58.1818 25.024C58.1818 25.696 58.4432 26.2653 58.9658 26.732C59.5072 27.1987 60.1978 27.432 61.0378 27.432C62.0645 27.432 62.9605 27.2173 63.7258 26.788C64.4912 26.34 65.0885 25.7427 65.5178 24.996C65.9472 24.2493 66.1618 23.4187 66.1618 22.504V18.696C66.1618 17.8 65.8352 17.072 65.1818 16.512C64.5285 15.952 63.6792 15.672 62.6338 15.672C61.7192 15.672 60.9165 15.9053 60.2258 16.372C59.5352 16.82 59.0218 17.408 58.6858 18.136L56.7818 17.1C57.0618 16.4653 57.5005 15.8867 58.0978 15.364C58.7138 14.8413 59.4138 14.4307 60.1978 14.132C60.9818 13.8147 61.7938 13.656 62.6338 13.656C63.7352 13.656 64.7058 13.8707 65.5458 14.3C66.4045 14.7293 67.0672 15.3267 67.5338 16.092C68.0192 16.8387 68.2618 17.7067 68.2618 18.696V29H66.1618V26.004L66.4698 26.312C66.2085 26.872 65.7978 27.3853 65.2378 27.852C64.6965 28.3 64.0525 28.664 63.3058 28.944C62.5778 29.2053 61.7752 29.336 60.8978 29.336ZM72.5813 29V13.992H74.6813V16.456L74.4013 16.092C74.7559 15.3827 75.2879 14.8227 75.9973 14.412C76.7253 14.0013 77.6026 13.796 78.6293 13.796H79.5813V15.896H78.2653C77.1826 15.896 76.3146 16.232 75.6613 16.904C75.0079 17.576 74.6813 18.528 74.6813 19.76V29H72.5813ZM87.7822 29.168C86.4382 29.168 85.4022 28.776 84.6742 27.992C83.9462 27.208 83.5822 26.088 83.5822 24.632V16.092H80.8102V13.992H81.5102C82.1449 13.992 82.6489 13.7867 83.0222 13.376C83.3955 12.9467 83.5822 12.4147 83.5822 11.78V10.52H85.6822V13.992H88.9862V16.092H85.6822V24.632C85.6822 25.136 85.7569 25.584 85.9062 25.976C86.0555 26.3493 86.3075 26.648 86.6622 26.872C87.0355 27.096 87.5302 27.208 88.1462 27.208C88.2955 27.208 88.4729 27.1987 88.6782 27.18C88.8835 27.1613 89.0609 27.1427 89.2102 27.124V29C88.9862 29.056 88.7342 29.0933 88.4542 29.112C88.1742 29.1493 87.9502 29.168 87.7822 29.168Z" fill="white"/>
</svg>
