<svg width="1894" height="706" viewBox="0 0 1894 706" fill="none" xmlns="http://www.w3.org/2000/svg">
<path d="M504 705.7H0L20 144.4H484L504 705.7Z" fill="#EE3224"/>
<path fill-rule="evenodd" clip-rule="evenodd" d="M220.198 500.85V576.5C220.198 597.8 202.898 615.1 181.598 615.1H145.398V262.6H167.998C196.798 262.6 220.198 286 220.198 314.8V485.16L296.298 379.1H332.898C351.798 379.1 362.498 400.9 350.898 415.8L293.598 490L384.798 615.1H320.698C305.798 615.1 291.898 607.7 283.598 595.3L220.198 500.85Z" fill="white"/>
<path d="M329.9 151.5C329.9 154.8 329.7 158.1 329.3 161.3H403.2C403.4 158 403.5 154.8 403.5 151.5C403.5 67.8 335.7 0 252 0C168.3 0 100.5 67.8 100.5 151.5C100.5 154.8 100.6 158.1 100.8 161.3H174.7C174.3 158.1 174.1 154.8 174.1 151.5C174.1 108.5 209 73.6 252 73.6C295 73.6 329.9 108.5 329.9 151.5Z" fill="#EE3224"/>
<path d="M623.748 625V343.708H688.21V625H623.748ZM810.69 625V457.397C810.69 438.644 804.829 424.189 793.109 414.031C781.388 403.482 766.933 398.208 749.743 398.208C738.022 398.208 727.474 400.552 718.098 405.24C709.112 409.929 701.884 416.766 696.415 425.751C690.945 434.346 688.21 444.895 688.21 457.397L663.011 443.332C663.011 421.845 667.699 403.287 677.076 387.66C686.452 372.032 699.149 359.921 715.168 351.326C731.186 342.34 749.157 337.848 769.082 337.848C789.007 337.848 806.978 342.145 822.996 350.74C839.014 359.335 851.711 371.446 861.088 387.074C870.464 402.701 875.152 421.454 875.152 443.332V625H810.69ZM997.632 625V457.397C997.632 438.644 991.771 424.189 980.051 414.031C968.33 403.482 953.875 398.208 936.685 398.208C925.355 398.208 915.002 400.552 905.626 405.24C896.249 409.929 888.826 416.766 883.357 425.751C877.887 434.346 875.152 444.895 875.152 457.397L838.819 443.332C840.772 421.845 847.023 403.287 857.572 387.66C868.12 372.032 881.599 359.921 898.007 351.326C914.807 342.34 933.169 337.848 953.094 337.848C973.409 337.848 991.771 342.145 1008.18 350.74C1024.59 359.335 1037.68 371.446 1047.44 387.074C1057.21 402.701 1062.09 421.454 1062.09 443.332V625H997.632ZM1246.3 630.86C1220.9 630.86 1197.85 624.414 1177.15 611.521C1156.83 598.629 1140.62 581.243 1128.51 559.365C1116.79 537.096 1110.93 512.288 1110.93 484.94C1110.93 457.201 1116.79 432.393 1128.51 410.515C1140.62 388.246 1156.83 370.665 1177.15 357.772C1197.85 344.489 1220.9 337.848 1246.3 337.848C1267.79 337.848 1286.73 342.536 1303.14 351.912C1319.94 360.898 1333.23 373.4 1342.99 389.418C1352.76 405.436 1357.64 423.603 1357.64 443.918V524.79C1357.64 545.105 1352.76 563.272 1342.99 579.29C1333.62 595.308 1320.53 608.005 1303.73 617.382C1286.93 626.367 1267.79 630.86 1246.3 630.86ZM1256.85 569.914C1280.68 569.914 1299.82 561.905 1314.28 545.887C1329.12 529.869 1336.55 509.358 1336.55 484.354C1336.55 467.555 1333.23 452.709 1326.58 439.816C1319.94 426.923 1310.57 416.961 1298.45 409.929C1286.73 402.506 1272.87 398.794 1256.85 398.794C1241.22 398.794 1227.35 402.506 1215.24 409.929C1203.52 416.961 1194.14 426.923 1187.11 439.816C1180.47 452.709 1177.15 467.555 1177.15 484.354C1177.15 501.153 1180.47 515.999 1187.11 528.892C1194.14 541.784 1203.52 551.942 1215.24 559.365C1227.35 566.397 1241.22 569.914 1256.85 569.914ZM1332.44 625V549.403L1343.58 480.838L1332.44 412.859V343.708H1396.91V625H1332.44ZM1468.45 625V343.708H1532.91V625H1468.45ZM1532.91 468.531L1510.64 457.397C1510.64 421.845 1518.46 393.129 1534.08 371.251C1550.1 348.982 1574.13 337.848 1606.16 337.848C1620.23 337.848 1632.93 340.387 1644.26 345.466C1655.59 350.545 1666.13 358.749 1675.9 370.079L1633.71 413.445C1628.63 407.975 1622.96 404.068 1616.71 401.724C1610.46 399.38 1603.23 398.208 1595.03 398.208C1577.06 398.208 1562.21 403.873 1550.49 415.203C1538.77 426.533 1532.91 444.309 1532.91 468.531ZM1750.45 625V226.503H1814.91V625H1750.45ZM1683.05 402.31V343.708H1882.3V402.31H1683.05Z" fill="white"/>
</svg>
