<svg width="40" height="40" viewBox="0 0 40 40" fill="none" xmlns="http://www.w3.org/2000/svg">
<rect width="40" height="40" rx="20" fill="#101010"/>
<path d="M15 16.5L17.942 18.2394C19.6572 19.2535 20.3428 19.2535 22.058 18.2394L25 16.5" stroke="white" stroke-width="1.5" stroke-linecap="round" stroke-linejoin="round"/>
<path d="M10.0158 21.4756C10.0811 24.5411 10.1138 26.0739 11.245 27.2093C12.3761 28.3448 13.9503 28.3843 17.0988 28.4634C19.0393 28.5122 20.9607 28.5122 22.9012 28.4634C26.0497 28.3843 27.6239 28.3448 28.755 27.2093C29.8862 26.0739 29.9189 24.5411 29.9842 21.4756C30.0053 20.4899 30.0053 19.51 29.9842 18.5244C29.9189 15.4588 29.8862 13.926 28.755 12.7906C27.6239 11.6552 26.0497 11.6156 22.9012 11.5365C20.9607 11.4878 19.0393 11.4878 17.0988 11.5365C13.9503 11.6156 12.3761 11.6552 11.245 12.7906C10.1138 13.926 10.0811 15.4588 10.0158 18.5243C9.99474 19.51 9.99474 20.4899 10.0158 21.4756Z" stroke="white" stroke-width="1.5" stroke-linejoin="round"/>
</svg>
