<svg width="40" height="41" viewBox="0 0 40 41" fill="none" xmlns="http://www.w3.org/2000/svg">
<rect y="0.647705" width="40" height="40" rx="8" fill="#FC5154"/>
<path d="M15 17.1477L17.942 18.8871C19.6572 19.9012 20.3428 19.9012 22.058 18.8871L25 17.1477" stroke="white" stroke-width="1.5" stroke-linecap="round" stroke-linejoin="round"/>
<path d="M10.0158 22.1233C10.0811 25.1888 10.1138 26.7216 11.2449 27.857C12.3761 28.9925 13.9503 29.032 17.0988 29.1111C19.0393 29.1599 20.9607 29.1599 22.9012 29.1111C26.0497 29.032 27.6239 28.9925 28.755 27.857C29.8862 26.7216 29.9189 25.1888 29.9842 22.1233C30.0053 21.1376 30.0053 20.1577 29.9842 19.1721C29.9189 16.1066 29.8862 14.5738 28.755 13.4384C27.6239 12.3029 26.0497 12.2634 22.9012 12.1843C20.9607 12.1355 19.0393 12.1355 17.0988 12.1843C13.9503 12.2634 12.3761 12.3029 11.2449 13.4384C10.1138 14.5738 10.0811 16.1066 10.0158 19.172C9.99474 20.1577 9.99474 21.1376 10.0158 22.1233Z" stroke="white" stroke-width="1.5" stroke-linejoin="round"/>
</svg>
